M48
INCH
T1C0.0236
T2C0.0394
%
G90
G05
T1
X5.0039Y-3.2992
X5.0039Y-3.4016
X5.0748Y-3.2165
X5.0748Y-3.2992
X5.0748Y-3.4016
X5.1417Y-3.2165
X5.1417Y-3.2992
X5.1417Y-3.4016
T2
X4.6447Y-2.9518
X4.6447Y-3.188
X4.6447Y-3.503
X4.7234Y-3.6604
X4.8809Y-2.9518
X4.9596Y-3.5817
X5.0384Y-3.0305
X5.1171Y-3.6604
X5.1959Y-2.9518
X5.2746Y-3.5817
X5.3533Y-3.0305
X5.4321Y-3.6604
X5.5108Y-2.9518
X5.5108Y-3.188
X5.5108Y-3.4242
X4.7425Y-3.1039
X4.7425Y-3.2039
X4.7425Y-3.3039
X4.7425Y-3.4039
X4.7425Y-3.5039
X4.8425Y-3.1039
X4.8425Y-3.2039
X4.8425Y-3.3039
X4.8425Y-3.4039
X4.8425Y-3.5039
T0
M30
