G04 #@! TF.GenerationSoftware,KiCad,Pcbnew,(5.1.4)-1*
G04 #@! TF.CreationDate,2021-03-01T17:54:04+03:00*
G04 #@! TF.ProjectId,FPGA_Prog_Adapter,46504741-5f50-4726-9f67-5f4164617074,rev?*
G04 #@! TF.SameCoordinates,Original*
G04 #@! TF.FileFunction,Soldermask,Bot*
G04 #@! TF.FilePolarity,Negative*
%FSLAX46Y46*%
G04 Gerber Fmt 4.6, Leading zero omitted, Abs format (unit mm)*
G04 Created by KiCad (PCBNEW (5.1.4)-1) date 2021-03-01 17:54:04*
%MOMM*%
%LPD*%
G04 APERTURE LIST*
%ADD10C,0.100000*%
G04 APERTURE END LIST*
D10*
G36*
X120570443Y-88105519D02*
G01*
X120636627Y-88112037D01*
X120806466Y-88163557D01*
X120962991Y-88247222D01*
X120998729Y-88276552D01*
X121100186Y-88359814D01*
X121183448Y-88461271D01*
X121212778Y-88497009D01*
X121296443Y-88653534D01*
X121347963Y-88823373D01*
X121365359Y-89000000D01*
X121347963Y-89176627D01*
X121296443Y-89346466D01*
X121212778Y-89502991D01*
X121183448Y-89538729D01*
X121100186Y-89640186D01*
X120998729Y-89723448D01*
X120962991Y-89752778D01*
X120806466Y-89836443D01*
X120636627Y-89887963D01*
X120570442Y-89894482D01*
X120504260Y-89901000D01*
X120415740Y-89901000D01*
X120349558Y-89894482D01*
X120283373Y-89887963D01*
X120113534Y-89836443D01*
X119957009Y-89752778D01*
X119921271Y-89723448D01*
X119819814Y-89640186D01*
X119736552Y-89538729D01*
X119707222Y-89502991D01*
X119623557Y-89346466D01*
X119572037Y-89176627D01*
X119554641Y-89000000D01*
X119572037Y-88823373D01*
X119623557Y-88653534D01*
X119707222Y-88497009D01*
X119736552Y-88461271D01*
X119819814Y-88359814D01*
X119921271Y-88276552D01*
X119957009Y-88247222D01*
X120113534Y-88163557D01*
X120283373Y-88112037D01*
X120349557Y-88105519D01*
X120415740Y-88099000D01*
X120504260Y-88099000D01*
X120570443Y-88105519D01*
X120570443Y-88105519D01*
G37*
G36*
X123901000Y-89901000D02*
G01*
X122099000Y-89901000D01*
X122099000Y-88099000D01*
X123901000Y-88099000D01*
X123901000Y-89901000D01*
X123901000Y-89901000D01*
G37*
G36*
X120570442Y-85565518D02*
G01*
X120636627Y-85572037D01*
X120806466Y-85623557D01*
X120962991Y-85707222D01*
X120998729Y-85736552D01*
X121100186Y-85819814D01*
X121183448Y-85921271D01*
X121212778Y-85957009D01*
X121296443Y-86113534D01*
X121347963Y-86283373D01*
X121365359Y-86460000D01*
X121347963Y-86636627D01*
X121296443Y-86806466D01*
X121212778Y-86962991D01*
X121183448Y-86998729D01*
X121100186Y-87100186D01*
X120998729Y-87183448D01*
X120962991Y-87212778D01*
X120806466Y-87296443D01*
X120636627Y-87347963D01*
X120570443Y-87354481D01*
X120504260Y-87361000D01*
X120415740Y-87361000D01*
X120349557Y-87354481D01*
X120283373Y-87347963D01*
X120113534Y-87296443D01*
X119957009Y-87212778D01*
X119921271Y-87183448D01*
X119819814Y-87100186D01*
X119736552Y-86998729D01*
X119707222Y-86962991D01*
X119623557Y-86806466D01*
X119572037Y-86636627D01*
X119554641Y-86460000D01*
X119572037Y-86283373D01*
X119623557Y-86113534D01*
X119707222Y-85957009D01*
X119736552Y-85921271D01*
X119819814Y-85819814D01*
X119921271Y-85736552D01*
X119957009Y-85707222D01*
X120113534Y-85623557D01*
X120283373Y-85572037D01*
X120349558Y-85565518D01*
X120415740Y-85559000D01*
X120504260Y-85559000D01*
X120570442Y-85565518D01*
X120570442Y-85565518D01*
G37*
G36*
X123110442Y-85565518D02*
G01*
X123176627Y-85572037D01*
X123346466Y-85623557D01*
X123502991Y-85707222D01*
X123538729Y-85736552D01*
X123640186Y-85819814D01*
X123723448Y-85921271D01*
X123752778Y-85957009D01*
X123836443Y-86113534D01*
X123887963Y-86283373D01*
X123905359Y-86460000D01*
X123887963Y-86636627D01*
X123836443Y-86806466D01*
X123752778Y-86962991D01*
X123723448Y-86998729D01*
X123640186Y-87100186D01*
X123538729Y-87183448D01*
X123502991Y-87212778D01*
X123346466Y-87296443D01*
X123176627Y-87347963D01*
X123110443Y-87354481D01*
X123044260Y-87361000D01*
X122955740Y-87361000D01*
X122889557Y-87354481D01*
X122823373Y-87347963D01*
X122653534Y-87296443D01*
X122497009Y-87212778D01*
X122461271Y-87183448D01*
X122359814Y-87100186D01*
X122276552Y-86998729D01*
X122247222Y-86962991D01*
X122163557Y-86806466D01*
X122112037Y-86636627D01*
X122094641Y-86460000D01*
X122112037Y-86283373D01*
X122163557Y-86113534D01*
X122247222Y-85957009D01*
X122276552Y-85921271D01*
X122359814Y-85819814D01*
X122461271Y-85736552D01*
X122497009Y-85707222D01*
X122653534Y-85623557D01*
X122823373Y-85572037D01*
X122889558Y-85565518D01*
X122955740Y-85559000D01*
X123044260Y-85559000D01*
X123110442Y-85565518D01*
X123110442Y-85565518D01*
G37*
G36*
X123110442Y-83025518D02*
G01*
X123176627Y-83032037D01*
X123346466Y-83083557D01*
X123502991Y-83167222D01*
X123538729Y-83196552D01*
X123640186Y-83279814D01*
X123723448Y-83381271D01*
X123752778Y-83417009D01*
X123836443Y-83573534D01*
X123887963Y-83743373D01*
X123905359Y-83920000D01*
X123887963Y-84096627D01*
X123836443Y-84266466D01*
X123752778Y-84422991D01*
X123723448Y-84458729D01*
X123640186Y-84560186D01*
X123538729Y-84643448D01*
X123502991Y-84672778D01*
X123346466Y-84756443D01*
X123176627Y-84807963D01*
X123110442Y-84814482D01*
X123044260Y-84821000D01*
X122955740Y-84821000D01*
X122889558Y-84814482D01*
X122823373Y-84807963D01*
X122653534Y-84756443D01*
X122497009Y-84672778D01*
X122461271Y-84643448D01*
X122359814Y-84560186D01*
X122276552Y-84458729D01*
X122247222Y-84422991D01*
X122163557Y-84266466D01*
X122112037Y-84096627D01*
X122094641Y-83920000D01*
X122112037Y-83743373D01*
X122163557Y-83573534D01*
X122247222Y-83417009D01*
X122276552Y-83381271D01*
X122359814Y-83279814D01*
X122461271Y-83196552D01*
X122497009Y-83167222D01*
X122653534Y-83083557D01*
X122823373Y-83032037D01*
X122889558Y-83025518D01*
X122955740Y-83019000D01*
X123044260Y-83019000D01*
X123110442Y-83025518D01*
X123110442Y-83025518D01*
G37*
G36*
X120570442Y-83025518D02*
G01*
X120636627Y-83032037D01*
X120806466Y-83083557D01*
X120962991Y-83167222D01*
X120998729Y-83196552D01*
X121100186Y-83279814D01*
X121183448Y-83381271D01*
X121212778Y-83417009D01*
X121296443Y-83573534D01*
X121347963Y-83743373D01*
X121365359Y-83920000D01*
X121347963Y-84096627D01*
X121296443Y-84266466D01*
X121212778Y-84422991D01*
X121183448Y-84458729D01*
X121100186Y-84560186D01*
X120998729Y-84643448D01*
X120962991Y-84672778D01*
X120806466Y-84756443D01*
X120636627Y-84807963D01*
X120570442Y-84814482D01*
X120504260Y-84821000D01*
X120415740Y-84821000D01*
X120349558Y-84814482D01*
X120283373Y-84807963D01*
X120113534Y-84756443D01*
X119957009Y-84672778D01*
X119921271Y-84643448D01*
X119819814Y-84560186D01*
X119736552Y-84458729D01*
X119707222Y-84422991D01*
X119623557Y-84266466D01*
X119572037Y-84096627D01*
X119554641Y-83920000D01*
X119572037Y-83743373D01*
X119623557Y-83573534D01*
X119707222Y-83417009D01*
X119736552Y-83381271D01*
X119819814Y-83279814D01*
X119921271Y-83196552D01*
X119957009Y-83167222D01*
X120113534Y-83083557D01*
X120283373Y-83032037D01*
X120349558Y-83025518D01*
X120415740Y-83019000D01*
X120504260Y-83019000D01*
X120570442Y-83025518D01*
X120570442Y-83025518D01*
G37*
G36*
X120570443Y-80485519D02*
G01*
X120636627Y-80492037D01*
X120806466Y-80543557D01*
X120962991Y-80627222D01*
X120998729Y-80656552D01*
X121100186Y-80739814D01*
X121183448Y-80841271D01*
X121212778Y-80877009D01*
X121296443Y-81033534D01*
X121347963Y-81203373D01*
X121365359Y-81380000D01*
X121347963Y-81556627D01*
X121296443Y-81726466D01*
X121212778Y-81882991D01*
X121183448Y-81918729D01*
X121100186Y-82020186D01*
X120998729Y-82103448D01*
X120962991Y-82132778D01*
X120806466Y-82216443D01*
X120636627Y-82267963D01*
X120570442Y-82274482D01*
X120504260Y-82281000D01*
X120415740Y-82281000D01*
X120349558Y-82274482D01*
X120283373Y-82267963D01*
X120113534Y-82216443D01*
X119957009Y-82132778D01*
X119921271Y-82103448D01*
X119819814Y-82020186D01*
X119736552Y-81918729D01*
X119707222Y-81882991D01*
X119623557Y-81726466D01*
X119572037Y-81556627D01*
X119554641Y-81380000D01*
X119572037Y-81203373D01*
X119623557Y-81033534D01*
X119707222Y-80877009D01*
X119736552Y-80841271D01*
X119819814Y-80739814D01*
X119921271Y-80656552D01*
X119957009Y-80627222D01*
X120113534Y-80543557D01*
X120283373Y-80492037D01*
X120349557Y-80485519D01*
X120415740Y-80479000D01*
X120504260Y-80479000D01*
X120570443Y-80485519D01*
X120570443Y-80485519D01*
G37*
G36*
X123110443Y-80485519D02*
G01*
X123176627Y-80492037D01*
X123346466Y-80543557D01*
X123502991Y-80627222D01*
X123538729Y-80656552D01*
X123640186Y-80739814D01*
X123723448Y-80841271D01*
X123752778Y-80877009D01*
X123836443Y-81033534D01*
X123887963Y-81203373D01*
X123905359Y-81380000D01*
X123887963Y-81556627D01*
X123836443Y-81726466D01*
X123752778Y-81882991D01*
X123723448Y-81918729D01*
X123640186Y-82020186D01*
X123538729Y-82103448D01*
X123502991Y-82132778D01*
X123346466Y-82216443D01*
X123176627Y-82267963D01*
X123110442Y-82274482D01*
X123044260Y-82281000D01*
X122955740Y-82281000D01*
X122889558Y-82274482D01*
X122823373Y-82267963D01*
X122653534Y-82216443D01*
X122497009Y-82132778D01*
X122461271Y-82103448D01*
X122359814Y-82020186D01*
X122276552Y-81918729D01*
X122247222Y-81882991D01*
X122163557Y-81726466D01*
X122112037Y-81556627D01*
X122094641Y-81380000D01*
X122112037Y-81203373D01*
X122163557Y-81033534D01*
X122247222Y-80877009D01*
X122276552Y-80841271D01*
X122359814Y-80739814D01*
X122461271Y-80656552D01*
X122497009Y-80627222D01*
X122653534Y-80543557D01*
X122823373Y-80492037D01*
X122889557Y-80485519D01*
X122955740Y-80479000D01*
X123044260Y-80479000D01*
X123110443Y-80485519D01*
X123110443Y-80485519D01*
G37*
G36*
X123110442Y-77945518D02*
G01*
X123176627Y-77952037D01*
X123346466Y-78003557D01*
X123502991Y-78087222D01*
X123538729Y-78116552D01*
X123640186Y-78199814D01*
X123723448Y-78301271D01*
X123752778Y-78337009D01*
X123836443Y-78493534D01*
X123887963Y-78663373D01*
X123905359Y-78840000D01*
X123887963Y-79016627D01*
X123836443Y-79186466D01*
X123752778Y-79342991D01*
X123723448Y-79378729D01*
X123640186Y-79480186D01*
X123538729Y-79563448D01*
X123502991Y-79592778D01*
X123346466Y-79676443D01*
X123176627Y-79727963D01*
X123110443Y-79734481D01*
X123044260Y-79741000D01*
X122955740Y-79741000D01*
X122889557Y-79734481D01*
X122823373Y-79727963D01*
X122653534Y-79676443D01*
X122497009Y-79592778D01*
X122461271Y-79563448D01*
X122359814Y-79480186D01*
X122276552Y-79378729D01*
X122247222Y-79342991D01*
X122163557Y-79186466D01*
X122112037Y-79016627D01*
X122094641Y-78840000D01*
X122112037Y-78663373D01*
X122163557Y-78493534D01*
X122247222Y-78337009D01*
X122276552Y-78301271D01*
X122359814Y-78199814D01*
X122461271Y-78116552D01*
X122497009Y-78087222D01*
X122653534Y-78003557D01*
X122823373Y-77952037D01*
X122889558Y-77945518D01*
X122955740Y-77939000D01*
X123044260Y-77939000D01*
X123110442Y-77945518D01*
X123110442Y-77945518D01*
G37*
G36*
X120570442Y-77945518D02*
G01*
X120636627Y-77952037D01*
X120806466Y-78003557D01*
X120962991Y-78087222D01*
X120998729Y-78116552D01*
X121100186Y-78199814D01*
X121183448Y-78301271D01*
X121212778Y-78337009D01*
X121296443Y-78493534D01*
X121347963Y-78663373D01*
X121365359Y-78840000D01*
X121347963Y-79016627D01*
X121296443Y-79186466D01*
X121212778Y-79342991D01*
X121183448Y-79378729D01*
X121100186Y-79480186D01*
X120998729Y-79563448D01*
X120962991Y-79592778D01*
X120806466Y-79676443D01*
X120636627Y-79727963D01*
X120570443Y-79734481D01*
X120504260Y-79741000D01*
X120415740Y-79741000D01*
X120349557Y-79734481D01*
X120283373Y-79727963D01*
X120113534Y-79676443D01*
X119957009Y-79592778D01*
X119921271Y-79563448D01*
X119819814Y-79480186D01*
X119736552Y-79378729D01*
X119707222Y-79342991D01*
X119623557Y-79186466D01*
X119572037Y-79016627D01*
X119554641Y-78840000D01*
X119572037Y-78663373D01*
X119623557Y-78493534D01*
X119707222Y-78337009D01*
X119736552Y-78301271D01*
X119819814Y-78199814D01*
X119921271Y-78116552D01*
X119957009Y-78087222D01*
X120113534Y-78003557D01*
X120283373Y-77952037D01*
X120349558Y-77945518D01*
X120415740Y-77939000D01*
X120504260Y-77939000D01*
X120570442Y-77945518D01*
X120570442Y-77945518D01*
G37*
M02*
