G04 #@! TF.GenerationSoftware,KiCad,Pcbnew,(5.1.4)-1*
G04 #@! TF.CreationDate,2021-03-01T17:54:04+03:00*
G04 #@! TF.ProjectId,FPGA_Prog_Adapter,46504741-5f50-4726-9f67-5f4164617074,rev?*
G04 #@! TF.SameCoordinates,Original*
G04 #@! TF.FileFunction,Copper,L1,Top*
G04 #@! TF.FilePolarity,Positive*
%FSLAX46Y46*%
G04 Gerber Fmt 4.6, Leading zero omitted, Abs format (unit mm)*
G04 Created by KiCad (PCBNEW (5.1.4)-1) date 2021-03-01 17:54:04*
%MOMM*%
%LPD*%
G04 APERTURE LIST*
%ADD10R,2.400000X0.740000*%
%ADD11O,1.700000X1.700000*%
%ADD12R,1.700000X1.700000*%
%ADD13C,1.000000*%
%ADD14C,1.500000*%
%ADD15C,0.500000*%
%ADD16C,0.300000*%
%ADD17C,0.254000*%
G04 APERTURE END LIST*
D10*
X137260000Y-86450000D03*
X133360000Y-86450000D03*
X137260000Y-85180000D03*
X133360000Y-85180000D03*
X137260000Y-83910000D03*
X133360000Y-83910000D03*
X137260000Y-82640000D03*
X133360000Y-82640000D03*
X137260000Y-81370000D03*
X133360000Y-81370000D03*
D11*
X120460000Y-78840000D03*
X123000000Y-78840000D03*
X120460000Y-81380000D03*
X123000000Y-81380000D03*
X120460000Y-83920000D03*
X123000000Y-83920000D03*
X120460000Y-86460000D03*
X123000000Y-86460000D03*
X120460000Y-89000000D03*
D12*
X123000000Y-89000000D03*
D13*
X130600000Y-86400000D03*
D14*
X117974999Y-74974999D03*
X117974999Y-80974999D03*
X117974999Y-88974999D03*
X119974999Y-92974999D03*
X123974999Y-74974999D03*
X125974999Y-90974999D03*
X127974999Y-76974999D03*
X129974999Y-92974999D03*
X131974999Y-74974999D03*
X133974999Y-90974999D03*
X135974999Y-76974999D03*
X137974999Y-92974999D03*
X139974999Y-74974999D03*
X139974999Y-80974999D03*
X139974999Y-86974999D03*
D13*
X128900000Y-86400000D03*
X127100000Y-86400000D03*
X130600000Y-83800000D03*
X128900000Y-83800000D03*
X127100000Y-83800000D03*
X128900000Y-81700000D03*
X130600000Y-81700000D03*
D15*
X133360000Y-81370000D02*
X131130000Y-81370000D01*
X131130000Y-81370000D02*
X130600000Y-81900000D01*
X133360000Y-86450000D02*
X130650000Y-86450000D01*
X130650000Y-86450000D02*
X130600000Y-86500000D01*
X123000000Y-78840000D02*
X135640000Y-78840000D01*
X137260000Y-80460000D02*
X137260000Y-81370000D01*
X135640000Y-78840000D02*
X137260000Y-80460000D01*
X124580000Y-83920000D02*
X123000000Y-83920000D01*
X135560000Y-83910000D02*
X135300000Y-83650000D01*
X137260000Y-83910000D02*
X135560000Y-83910000D01*
X135300000Y-83650000D02*
X135300000Y-80700000D01*
X135300000Y-80700000D02*
X134900000Y-80300000D01*
X134900000Y-80300000D02*
X128200000Y-80300000D01*
X128200000Y-80300000D02*
X124580000Y-83920000D01*
X133360000Y-85180000D02*
X124480000Y-85180000D01*
X121309999Y-85610001D02*
X120460000Y-86460000D01*
D16*
X124480000Y-85180000D02*
X121740000Y-85180000D01*
D15*
X121740000Y-85180000D02*
X121309999Y-85610001D01*
X124960000Y-86460000D02*
X123000000Y-86460000D01*
X135820000Y-85180000D02*
X135400000Y-85600000D01*
X137260000Y-85180000D02*
X135820000Y-85180000D01*
X135400000Y-85600000D02*
X135400000Y-87200000D01*
X135400000Y-87200000D02*
X134900000Y-87700000D01*
X134900000Y-87700000D02*
X126200000Y-87700000D01*
X126200000Y-87700000D02*
X124960000Y-86460000D01*
X137260000Y-87320000D02*
X137260000Y-86450000D01*
X135580000Y-89000000D02*
X137260000Y-87320000D01*
X123000000Y-89000000D02*
X135580000Y-89000000D01*
D17*
G36*
X142340001Y-94340000D02*
G01*
X116660000Y-94340000D01*
X116660000Y-81380000D01*
X118967815Y-81380000D01*
X118996487Y-81671111D01*
X119081401Y-81951034D01*
X119219294Y-82209014D01*
X119404866Y-82435134D01*
X119630986Y-82620706D01*
X119685791Y-82650000D01*
X119630986Y-82679294D01*
X119404866Y-82864866D01*
X119219294Y-83090986D01*
X119081401Y-83348966D01*
X118996487Y-83628889D01*
X118967815Y-83920000D01*
X118996487Y-84211111D01*
X119081401Y-84491034D01*
X119219294Y-84749014D01*
X119404866Y-84975134D01*
X119630986Y-85160706D01*
X119685791Y-85190000D01*
X119630986Y-85219294D01*
X119404866Y-85404866D01*
X119219294Y-85630986D01*
X119081401Y-85888966D01*
X118996487Y-86168889D01*
X118967815Y-86460000D01*
X118996487Y-86751111D01*
X119081401Y-87031034D01*
X119219294Y-87289014D01*
X119404866Y-87515134D01*
X119630986Y-87700706D01*
X119888966Y-87838599D01*
X120168889Y-87923513D01*
X120387050Y-87945000D01*
X120532950Y-87945000D01*
X120751111Y-87923513D01*
X121031034Y-87838599D01*
X121289014Y-87700706D01*
X121515134Y-87515134D01*
X121700706Y-87289014D01*
X121730000Y-87234209D01*
X121759294Y-87289014D01*
X121944866Y-87515134D01*
X121974687Y-87539607D01*
X121905820Y-87560498D01*
X121795506Y-87619463D01*
X121698815Y-87698815D01*
X121619463Y-87795506D01*
X121560498Y-87905820D01*
X121524188Y-88025518D01*
X121511928Y-88150000D01*
X121511928Y-89850000D01*
X121524188Y-89974482D01*
X121560498Y-90094180D01*
X121619463Y-90204494D01*
X121698815Y-90301185D01*
X121795506Y-90380537D01*
X121905820Y-90439502D01*
X122025518Y-90475812D01*
X122150000Y-90488072D01*
X123850000Y-90488072D01*
X123974482Y-90475812D01*
X124094180Y-90439502D01*
X124204494Y-90380537D01*
X124301185Y-90301185D01*
X124380537Y-90204494D01*
X124439502Y-90094180D01*
X124475812Y-89974482D01*
X124484625Y-89885000D01*
X135536531Y-89885000D01*
X135580000Y-89889281D01*
X135623469Y-89885000D01*
X135623477Y-89885000D01*
X135753490Y-89872195D01*
X135920313Y-89821589D01*
X136074059Y-89739411D01*
X136208817Y-89628817D01*
X136236534Y-89595044D01*
X137855050Y-87976529D01*
X137888817Y-87948817D01*
X137999411Y-87814059D01*
X138081589Y-87660313D01*
X138132195Y-87493490D01*
X138135683Y-87458072D01*
X138460000Y-87458072D01*
X138584482Y-87445812D01*
X138704180Y-87409502D01*
X138814494Y-87350537D01*
X138911185Y-87271185D01*
X138990537Y-87174494D01*
X139049502Y-87064180D01*
X139085812Y-86944482D01*
X139098072Y-86820000D01*
X139098072Y-86080000D01*
X139085812Y-85955518D01*
X139049502Y-85835820D01*
X139038373Y-85815000D01*
X139049502Y-85794180D01*
X139085812Y-85674482D01*
X139098072Y-85550000D01*
X139098072Y-84810000D01*
X139085812Y-84685518D01*
X139049502Y-84565820D01*
X139038373Y-84545000D01*
X139049502Y-84524180D01*
X139085812Y-84404482D01*
X139098072Y-84280000D01*
X139098072Y-83540000D01*
X139085812Y-83415518D01*
X139049502Y-83295820D01*
X139038373Y-83275000D01*
X139049502Y-83254180D01*
X139085812Y-83134482D01*
X139098072Y-83010000D01*
X139098072Y-82270000D01*
X139085812Y-82145518D01*
X139049502Y-82025820D01*
X139038373Y-82005000D01*
X139049502Y-81984180D01*
X139085812Y-81864482D01*
X139098072Y-81740000D01*
X139098072Y-81000000D01*
X139085812Y-80875518D01*
X139049502Y-80755820D01*
X138990537Y-80645506D01*
X138911185Y-80548815D01*
X138814494Y-80469463D01*
X138704180Y-80410498D01*
X138584482Y-80374188D01*
X138460000Y-80361928D01*
X138139623Y-80361928D01*
X138132195Y-80286510D01*
X138081589Y-80119687D01*
X137999411Y-79965941D01*
X137941191Y-79895000D01*
X137916532Y-79864953D01*
X137916530Y-79864951D01*
X137888817Y-79831183D01*
X137855050Y-79803471D01*
X136296534Y-78244956D01*
X136268817Y-78211183D01*
X136134059Y-78100589D01*
X135980313Y-78018411D01*
X135813490Y-77967805D01*
X135683477Y-77955000D01*
X135683469Y-77955000D01*
X135640000Y-77950719D01*
X135596531Y-77955000D01*
X124194759Y-77955000D01*
X124055134Y-77784866D01*
X123829014Y-77599294D01*
X123571034Y-77461401D01*
X123291111Y-77376487D01*
X123072950Y-77355000D01*
X122927050Y-77355000D01*
X122708889Y-77376487D01*
X122428966Y-77461401D01*
X122170986Y-77599294D01*
X121944866Y-77784866D01*
X121759294Y-78010986D01*
X121621401Y-78268966D01*
X121536487Y-78548889D01*
X121507815Y-78840000D01*
X121536487Y-79131111D01*
X121621401Y-79411034D01*
X121759294Y-79669014D01*
X121944866Y-79895134D01*
X122170986Y-80080706D01*
X122225791Y-80110000D01*
X122170986Y-80139294D01*
X121944866Y-80324866D01*
X121759294Y-80550986D01*
X121730000Y-80605791D01*
X121700706Y-80550986D01*
X121515134Y-80324866D01*
X121289014Y-80139294D01*
X121031034Y-80001401D01*
X120751111Y-79916487D01*
X120532950Y-79895000D01*
X120387050Y-79895000D01*
X120168889Y-79916487D01*
X119888966Y-80001401D01*
X119630986Y-80139294D01*
X119404866Y-80324866D01*
X119219294Y-80550986D01*
X119081401Y-80808966D01*
X118996487Y-81088889D01*
X118967815Y-81380000D01*
X116660000Y-81380000D01*
X116660000Y-73660000D01*
X142340000Y-73660000D01*
X142340001Y-94340000D01*
X142340001Y-94340000D01*
G37*
X142340001Y-94340000D02*
X116660000Y-94340000D01*
X116660000Y-81380000D01*
X118967815Y-81380000D01*
X118996487Y-81671111D01*
X119081401Y-81951034D01*
X119219294Y-82209014D01*
X119404866Y-82435134D01*
X119630986Y-82620706D01*
X119685791Y-82650000D01*
X119630986Y-82679294D01*
X119404866Y-82864866D01*
X119219294Y-83090986D01*
X119081401Y-83348966D01*
X118996487Y-83628889D01*
X118967815Y-83920000D01*
X118996487Y-84211111D01*
X119081401Y-84491034D01*
X119219294Y-84749014D01*
X119404866Y-84975134D01*
X119630986Y-85160706D01*
X119685791Y-85190000D01*
X119630986Y-85219294D01*
X119404866Y-85404866D01*
X119219294Y-85630986D01*
X119081401Y-85888966D01*
X118996487Y-86168889D01*
X118967815Y-86460000D01*
X118996487Y-86751111D01*
X119081401Y-87031034D01*
X119219294Y-87289014D01*
X119404866Y-87515134D01*
X119630986Y-87700706D01*
X119888966Y-87838599D01*
X120168889Y-87923513D01*
X120387050Y-87945000D01*
X120532950Y-87945000D01*
X120751111Y-87923513D01*
X121031034Y-87838599D01*
X121289014Y-87700706D01*
X121515134Y-87515134D01*
X121700706Y-87289014D01*
X121730000Y-87234209D01*
X121759294Y-87289014D01*
X121944866Y-87515134D01*
X121974687Y-87539607D01*
X121905820Y-87560498D01*
X121795506Y-87619463D01*
X121698815Y-87698815D01*
X121619463Y-87795506D01*
X121560498Y-87905820D01*
X121524188Y-88025518D01*
X121511928Y-88150000D01*
X121511928Y-89850000D01*
X121524188Y-89974482D01*
X121560498Y-90094180D01*
X121619463Y-90204494D01*
X121698815Y-90301185D01*
X121795506Y-90380537D01*
X121905820Y-90439502D01*
X122025518Y-90475812D01*
X122150000Y-90488072D01*
X123850000Y-90488072D01*
X123974482Y-90475812D01*
X124094180Y-90439502D01*
X124204494Y-90380537D01*
X124301185Y-90301185D01*
X124380537Y-90204494D01*
X124439502Y-90094180D01*
X124475812Y-89974482D01*
X124484625Y-89885000D01*
X135536531Y-89885000D01*
X135580000Y-89889281D01*
X135623469Y-89885000D01*
X135623477Y-89885000D01*
X135753490Y-89872195D01*
X135920313Y-89821589D01*
X136074059Y-89739411D01*
X136208817Y-89628817D01*
X136236534Y-89595044D01*
X137855050Y-87976529D01*
X137888817Y-87948817D01*
X137999411Y-87814059D01*
X138081589Y-87660313D01*
X138132195Y-87493490D01*
X138135683Y-87458072D01*
X138460000Y-87458072D01*
X138584482Y-87445812D01*
X138704180Y-87409502D01*
X138814494Y-87350537D01*
X138911185Y-87271185D01*
X138990537Y-87174494D01*
X139049502Y-87064180D01*
X139085812Y-86944482D01*
X139098072Y-86820000D01*
X139098072Y-86080000D01*
X139085812Y-85955518D01*
X139049502Y-85835820D01*
X139038373Y-85815000D01*
X139049502Y-85794180D01*
X139085812Y-85674482D01*
X139098072Y-85550000D01*
X139098072Y-84810000D01*
X139085812Y-84685518D01*
X139049502Y-84565820D01*
X139038373Y-84545000D01*
X139049502Y-84524180D01*
X139085812Y-84404482D01*
X139098072Y-84280000D01*
X139098072Y-83540000D01*
X139085812Y-83415518D01*
X139049502Y-83295820D01*
X139038373Y-83275000D01*
X139049502Y-83254180D01*
X139085812Y-83134482D01*
X139098072Y-83010000D01*
X139098072Y-82270000D01*
X139085812Y-82145518D01*
X139049502Y-82025820D01*
X139038373Y-82005000D01*
X139049502Y-81984180D01*
X139085812Y-81864482D01*
X139098072Y-81740000D01*
X139098072Y-81000000D01*
X139085812Y-80875518D01*
X139049502Y-80755820D01*
X138990537Y-80645506D01*
X138911185Y-80548815D01*
X138814494Y-80469463D01*
X138704180Y-80410498D01*
X138584482Y-80374188D01*
X138460000Y-80361928D01*
X138139623Y-80361928D01*
X138132195Y-80286510D01*
X138081589Y-80119687D01*
X137999411Y-79965941D01*
X137941191Y-79895000D01*
X137916532Y-79864953D01*
X137916530Y-79864951D01*
X137888817Y-79831183D01*
X137855050Y-79803471D01*
X136296534Y-78244956D01*
X136268817Y-78211183D01*
X136134059Y-78100589D01*
X135980313Y-78018411D01*
X135813490Y-77967805D01*
X135683477Y-77955000D01*
X135683469Y-77955000D01*
X135640000Y-77950719D01*
X135596531Y-77955000D01*
X124194759Y-77955000D01*
X124055134Y-77784866D01*
X123829014Y-77599294D01*
X123571034Y-77461401D01*
X123291111Y-77376487D01*
X123072950Y-77355000D01*
X122927050Y-77355000D01*
X122708889Y-77376487D01*
X122428966Y-77461401D01*
X122170986Y-77599294D01*
X121944866Y-77784866D01*
X121759294Y-78010986D01*
X121621401Y-78268966D01*
X121536487Y-78548889D01*
X121507815Y-78840000D01*
X121536487Y-79131111D01*
X121621401Y-79411034D01*
X121759294Y-79669014D01*
X121944866Y-79895134D01*
X122170986Y-80080706D01*
X122225791Y-80110000D01*
X122170986Y-80139294D01*
X121944866Y-80324866D01*
X121759294Y-80550986D01*
X121730000Y-80605791D01*
X121700706Y-80550986D01*
X121515134Y-80324866D01*
X121289014Y-80139294D01*
X121031034Y-80001401D01*
X120751111Y-79916487D01*
X120532950Y-79895000D01*
X120387050Y-79895000D01*
X120168889Y-79916487D01*
X119888966Y-80001401D01*
X119630986Y-80139294D01*
X119404866Y-80324866D01*
X119219294Y-80550986D01*
X119081401Y-80808966D01*
X118996487Y-81088889D01*
X118967815Y-81380000D01*
X116660000Y-81380000D01*
X116660000Y-73660000D01*
X142340000Y-73660000D01*
X142340001Y-94340000D01*
G36*
X131805506Y-86080537D02*
G01*
X131915820Y-86139502D01*
X132035518Y-86175812D01*
X132160000Y-86188072D01*
X134515000Y-86188072D01*
X134515001Y-86815000D01*
X126566579Y-86815000D01*
X125816578Y-86065000D01*
X131786574Y-86065000D01*
X131805506Y-86080537D01*
X131805506Y-86080537D01*
G37*
X131805506Y-86080537D02*
X131915820Y-86139502D01*
X132035518Y-86175812D01*
X132160000Y-86188072D01*
X134515000Y-86188072D01*
X134515001Y-86815000D01*
X126566579Y-86815000D01*
X125816578Y-86065000D01*
X131786574Y-86065000D01*
X131805506Y-86080537D01*
G36*
X134415001Y-81631928D02*
G01*
X132160000Y-81631928D01*
X132035518Y-81644188D01*
X131915820Y-81680498D01*
X131805506Y-81739463D01*
X131708815Y-81818815D01*
X131629463Y-81915506D01*
X131570498Y-82025820D01*
X131534188Y-82145518D01*
X131521928Y-82270000D01*
X131521928Y-83010000D01*
X131534188Y-83134482D01*
X131570498Y-83254180D01*
X131581627Y-83275000D01*
X131570498Y-83295820D01*
X131534188Y-83415518D01*
X131521928Y-83540000D01*
X131521928Y-84280000D01*
X131523405Y-84295000D01*
X125456578Y-84295000D01*
X128566579Y-81185000D01*
X134415001Y-81185000D01*
X134415001Y-81631928D01*
X134415001Y-81631928D01*
G37*
X134415001Y-81631928D02*
X132160000Y-81631928D01*
X132035518Y-81644188D01*
X131915820Y-81680498D01*
X131805506Y-81739463D01*
X131708815Y-81818815D01*
X131629463Y-81915506D01*
X131570498Y-82025820D01*
X131534188Y-82145518D01*
X131521928Y-82270000D01*
X131521928Y-83010000D01*
X131534188Y-83134482D01*
X131570498Y-83254180D01*
X131581627Y-83275000D01*
X131570498Y-83295820D01*
X131534188Y-83415518D01*
X131521928Y-83540000D01*
X131521928Y-84280000D01*
X131523405Y-84295000D01*
X125456578Y-84295000D01*
X128566579Y-81185000D01*
X134415001Y-81185000D01*
X134415001Y-81631928D01*
M02*
