G04 #@! TF.GenerationSoftware,KiCad,Pcbnew,(5.1.4)-1*
G04 #@! TF.CreationDate,2021-03-01T17:54:04+03:00*
G04 #@! TF.ProjectId,FPGA_Prog_Adapter,46504741-5f50-4726-9f67-5f4164617074,rev?*
G04 #@! TF.SameCoordinates,Original*
G04 #@! TF.FileFunction,Legend,Bot*
G04 #@! TF.FilePolarity,Positive*
%FSLAX46Y46*%
G04 Gerber Fmt 4.6, Leading zero omitted, Abs format (unit mm)*
G04 Created by KiCad (PCBNEW (5.1.4)-1) date 2021-03-01 17:54:04*
%MOMM*%
%LPD*%
G04 APERTURE LIST*
%ADD10C,0.120000*%
%ADD11C,0.150000*%
G04 APERTURE END LIST*
D10*
X118100000Y-90800000D02*
X125400000Y-90800000D01*
X118100000Y-77100000D02*
X118100000Y-90800000D01*
X125400000Y-77100000D02*
X118100000Y-77100000D01*
X125400000Y-85800000D02*
X125400000Y-90800000D01*
X125800000Y-85800000D02*
X125400000Y-85800000D01*
X125800000Y-81900000D02*
X125800000Y-85800000D01*
X125400000Y-81900000D02*
X125800000Y-81900000D01*
X125400000Y-77100000D02*
X125400000Y-81900000D01*
X123000000Y-90330000D02*
X124330000Y-90330000D01*
X124330000Y-90330000D02*
X124330000Y-89000000D01*
X121730000Y-90330000D02*
X121730000Y-87730000D01*
X121730000Y-87730000D02*
X124330000Y-87730000D01*
X124330000Y-87730000D02*
X124330000Y-77510000D01*
X119130000Y-77510000D02*
X124330000Y-77510000D01*
X119130000Y-90330000D02*
X119130000Y-77510000D01*
X119130000Y-90330000D02*
X121730000Y-90330000D01*
D11*
X122063333Y-91222380D02*
X122063333Y-91936666D01*
X122110952Y-92079523D01*
X122206190Y-92174761D01*
X122349047Y-92222380D01*
X122444285Y-92222380D01*
X121063333Y-92222380D02*
X121634761Y-92222380D01*
X121349047Y-92222380D02*
X121349047Y-91222380D01*
X121444285Y-91365238D01*
X121539523Y-91460476D01*
X121634761Y-91508095D01*
M02*
